{
 "cells": [
  {
   "cell_type": "markdown",
   "metadata": {},
   "source": [
    "# Define variables"
   ]
  },
  {
   "cell_type": "code",
   "execution_count": 49,
   "metadata": {},
   "outputs": [],
   "source": [
    "import pathlib\n",
    "import os\n",
    "import subprocess\n",
    "\n",
    "watermark_path = pathlib.Path(\"/home/ubuntu/drives/mkt/2 - Content/2 - Graphics/Animations/Logo final.png\")\n",
    "root_path_dir = pathlib.Path(f\"/home/ubuntu/drives/mkt/2 - Content/2 - Graphics/Animations/2026-02-24 Maheus AR Buildings practices comparison\")\n",
    "images_case = \"animation_uxz_10h\"\n",
    "\n",
    "# images_case = \"animation_vortex\"\n",
    "\n",
    "# watermark_position = (5,5)\n",
    "# watermark_position = (5,690)\n",
    "watermark_position = (30,30)\n",
    "watermark_scale = .2\n",
    "\n",
    "crop_margins = (0, 0, 0, 0)\n",
    "\n",
    "gif_size_list = [1920, 1080]\n",
    "speed_multiplier_list = [1.0]\n",
    "framerate_default = 13\n",
    "\n",
    "test_single_image = False\n",
    "add_watermark_to_images = True\n",
    "turn_into_video = True\n",
    "generate_intermediate_frames = True\n",
    "target_framerate = 24\n"
   ]
  },
  {
   "cell_type": "markdown",
   "metadata": {},
   "source": [
    "# Adds watermarks"
   ]
  },
  {
   "cell_type": "code",
   "execution_count": 50,
   "metadata": {},
   "outputs": [],
   "source": [
    "from PIL import Image\n",
    "import pathlib\n",
    "\n",
    "def add_watermark_to_image(\n",
    "    image: Image, watermark: Image, watermark_position: tuple, \n",
    ") -> Image:\n",
    "    image.paste(watermark, watermark_position, watermark)\n",
    "    return image\n",
    "\n",
    "def rescale_image(image: Image, image_scale: float) -> Image:\n",
    "    new_width = int(image.width*image_scale)\n",
    "    new_height = int(image.height*image_scale)\n",
    "    image = image.resize((new_width, new_height), Image.Resampling.LANCZOS)\n",
    "    return image\n",
    "\n",
    "def crop_image_margins(\n",
    "    image: pathlib.Path, crop_margins: tuple\n",
    ") -> Image:\n",
    "    w, h =  image.width, image.height\n",
    "    image = image.crop((crop_margins[0], crop_margins[1], w-crop_margins[2], h-crop_margins[3]))\n",
    "    return image"
   ]
  },
  {
   "cell_type": "code",
   "execution_count": 51,
   "metadata": {},
   "outputs": [],
   "source": [
    "def process_image(image: Image, crop_margins: tuple, watermark_position: tuple=None, watermark: Image=None) -> Image:\n",
    "    image = crop_image_margins(image=image, crop_margins=crop_margins)\n",
    "    image = add_watermark_to_image(image=image, watermark=watermark, watermark_position=watermark_position)\n",
    "    return image"
   ]
  },
  {
   "cell_type": "code",
   "execution_count": 52,
   "metadata": {},
   "outputs": [],
   "source": [
    "def generate_mp4_from_images(images_dir: pathlib.Path, video_dir: pathlib.Path, image_size: int, speed_multiplier: float):\n",
    "    mp4_file = video_dir/f\"{images_dir.stem}_size{image_size}_speed{speed_multiplier}.mp4\"\n",
    "    mp4_file.unlink(missing_ok=True)\n",
    "    command = f'ffmpeg -framerate {framerate_default} -pattern_type glob -i \"{images_dir}/*.png\" \\\n",
    "    -filter_complex \"setpts={1/speed_multiplier}*PTS,scale={image_size}:-2:flags=lanczos\" \\\n",
    "    -c:v libx264 -preset slow -crf 24 -pix_fmt yuv420p \"{mp4_file}\"'\n",
    "    print(\"command:\", command)\n",
    "    try:\n",
    "        print(os.getcwd())\n",
    "        subprocess.run(command, shell=True, check=True)\n",
    "    except subprocess.CalledProcessError as e:\n",
    "        print(f\"Error: {e}\")\n",
    "    return mp4_file"
   ]
  },
  {
   "cell_type": "code",
   "execution_count": 53,
   "metadata": {},
   "outputs": [],
   "source": [
    "def generate_frames_for_video(video_file: pathlib.Path):\n",
    "    output_path = video_file.parent/f\"{video_file.stem}_interpolated.mp4\"\n",
    "    command = f'ffmpeg -y -i \"{video_file}\" -filter_complex \"[0:v]minterpolate=mi_mode=mci:mc_mode=none:me_mode=bidir:fps={target_framerate}[v];[v]setpts=1*PTS\" \"{output_path}\"'\n",
    "    print(\"command:\", command)\n",
    "    try:\n",
    "        print(os.getcwd())\n",
    "        subprocess.run(command, shell=True, check=True)\n",
    "    except subprocess.CalledProcessError as e:\n",
    "        print(f\"Error: {e}\")"
   ]
  },
  {
   "cell_type": "code",
   "execution_count": 54,
   "metadata": {},
   "outputs": [],
   "source": [
    "path_use_root = root_path_dir / images_case\n",
    "\n",
    "images_path_dir = path_use_root / \"raw\"\n",
    "images_with_watermark_path_dir = path_use_root/ f\"watermarked/\"\n",
    "videos_path = path_use_root/ f\"videos/\"\n",
    "\n",
    "images_with_watermark_path_dir.mkdir(parents=True, exist_ok=True)\n",
    "videos_path.mkdir(parents=True, exist_ok=True)\n",
    "\n",
    "\n",
    "# sorted([im for im in images_path_dir.iterdir()])"
   ]
  },
  {
   "cell_type": "code",
   "execution_count": 55,
   "metadata": {},
   "outputs": [],
   "source": [
    "if test_single_image:\n",
    "    sample_file_path = next(images_path_dir.iterdir())\n",
    "    sample_file = Image.open(sample_file_path)\n",
    "    watermark = Image.open(watermark_path)\n",
    "    watermark = rescale_image(image=watermark, image_scale=watermark_scale)\n",
    "    img = process_image(image=sample_file, crop_margins=crop_margins ,watermark_position=watermark_position, watermark=watermark)\n",
    "    img.save(images_with_watermark_path_dir/sample_file_path.name)"
   ]
  },
  {
   "cell_type": "code",
   "execution_count": 56,
   "metadata": {},
   "outputs": [],
   "source": [
    "if add_watermark_to_images:\n",
    "    watermark = Image.open(watermark_path)\n",
    "    watermark = rescale_image(image=watermark, image_scale=watermark_scale)\n",
    "    for item in sorted([im for im in images_path_dir.iterdir()]):\n",
    "        if item.is_dir():\n",
    "            continue\n",
    "        else:\n",
    "            try:\n",
    "                # print(item.name)\n",
    "                with Image.open(item) as img:\n",
    "                    img = process_image(image=img, crop_margins=crop_margins, watermark_position=watermark_position, watermark=watermark)\n",
    "                    img.save(images_with_watermark_path_dir/item.name)\n",
    "            except IOError:\n",
    "                continue"
   ]
  },
  {
   "cell_type": "code",
   "execution_count": 57,
   "metadata": {},
   "outputs": [
    {
     "name": "stdout",
     "output_type": "stream",
     "text": [
      "command: ffmpeg -framerate 13 -pattern_type glob -i \"/home/ubuntu/drives/mkt/2 - Content/2 - Graphics/Animations/2026-02-24 Maheus AR Buildings practices comparison/animation_uxz_10h/watermarked/*.png\"     -filter_complex \"setpts=1.0*PTS,scale=1920:-2:flags=lanczos\"     -c:v libx264 -preset slow -crf 24 -pix_fmt yuv420p \"/home/ubuntu/drives/mkt/2 - Content/2 - Graphics/Animations/2026-02-24 Maheus AR Buildings practices comparison/animation_uxz_10h/videos/watermarked_size1920_speed1.0.mp4\"\n",
      "/home/ubuntu/Documents/Codigos/AeroSim/cfdmod\n"
     ]
    },
    {
     "name": "stderr",
     "output_type": "stream",
     "text": [
      "ffmpeg version 6.1.1-3ubuntu5 Copyright (c) 2000-2023 the FFmpeg developers\n",
      "  built with gcc 13 (Ubuntu 13.2.0-23ubuntu3)\n",
      "  configuration: --prefix=/usr --extra-version=3ubuntu5 --toolchain=hardened --libdir=/usr/lib/x86_64-linux-gnu --incdir=/usr/include/x86_64-linux-gnu --arch=amd64 --enable-gpl --disable-stripping --disable-omx --enable-gnutls --enable-libaom --enable-libass --enable-libbs2b --enable-libcaca --enable-libcdio --enable-libcodec2 --enable-libdav1d --enable-libflite --enable-libfontconfig --enable-libfreetype --enable-libfribidi --enable-libglslang --enable-libgme --enable-libgsm --enable-libharfbuzz --enable-libmp3lame --enable-libmysofa --enable-libopenjpeg --enable-libopenmpt --enable-libopus --enable-librubberband --enable-libshine --enable-libsnappy --enable-libsoxr --enable-libspeex --enable-libtheora --enable-libtwolame --enable-libvidstab --enable-libvorbis --enable-libvpx --enable-libwebp --enable-libx265 --enable-libxml2 --enable-libxvid --enable-libzimg --enable-openal --enable-opencl --enable-opengl --disable-sndio --enable-libvpl --disable-libmfx --enable-libdc1394 --enable-libdrm --enable-libiec61883 --enable-chromaprint --enable-frei0r --enable-ladspa --enable-libbluray --enable-libjack --enable-libpulse --enable-librabbitmq --enable-librist --enable-libsrt --enable-libssh --enable-libsvtav1 --enable-libx264 --enable-libzmq --enable-libzvbi --enable-lv2 --enable-sdl2 --enable-libplacebo --enable-librav1e --enable-pocketsphinx --enable-librsvg --enable-libjxl --enable-shared\n",
      "  libavutil      58. 29.100 / 58. 29.100\n",
      "  libavcodec     60. 31.102 / 60. 31.102\n",
      "  libavformat    60. 16.100 / 60. 16.100\n",
      "  libavdevice    60.  3.100 / 60.  3.100\n",
      "  libavfilter     9. 12.100 /  9. 12.100\n",
      "  libswscale      7.  5.100 /  7.  5.100\n",
      "  libswresample   4. 12.100 /  4. 12.100\n",
      "  libpostproc    57.  3.100 / 57.  3.100\n",
      "Input #0, image2, from '/home/ubuntu/drives/mkt/2 - Content/2 - Graphics/Animations/2026-02-24 Maheus AR Buildings practices comparison/animation_uxz_10h/watermarked/*.png':\n",
      "  Duration: 00:00:10.85, start: 0.000000, bitrate: N/A\n",
      "  Stream #0:0: Video: png, rgb24(pc, gbr/unknown/unknown), 1554x818, 13 fps, 13 tbr, 13 tbn\n",
      "Stream mapping:\n",
      "  Stream #0:0 (png) -> setpts:default\n",
      "  scale:default -> Stream #0:0 (libx264)\n",
      "Press [q] to stop, [?] for help\n",
      "[libx264 @ 0x60bdd2cccac0] using cpu capabilities: MMX2 SSE2Fast SSSE3 SSE4.2 AVX FMA3 BMI2 AVX2\n",
      "[libx264 @ 0x60bdd2cccac0] profile High, level 5.0, 4:2:0, 8-bit\n",
      "[libx264 @ 0x60bdd2cccac0] 264 - core 164 r3108 31e19f9 - H.264/MPEG-4 AVC codec - Copyleft 2003-2023 - http://www.videolan.org/x264.html - options: cabac=1 ref=5 deblock=1:0:0 analyse=0x3:0x113 me=hex subme=8 psy=1 psy_rd=1.00:0.00 mixed_ref=1 me_range=16 chroma_me=1 trellis=2 8x8dct=1 cqm=0 deadzone=21,11 fast_pskip=1 chroma_qp_offset=-2 threads=18 lookahead_threads=3 sliced_threads=0 nr=0 decimate=1 interlaced=0 bluray_compat=0 constrained_intra=0 bframes=3 b_pyramid=2 b_adapt=1 b_bias=0 direct=3 weightb=1 open_gop=0 weightp=2 keyint=250 keyint_min=13 scenecut=40 intra_refresh=0 rc_lookahead=50 rc=crf mbtree=1 crf=24.0 qcomp=0.60 qpmin=0 qpmax=69 qpstep=4 ip_ratio=1.40 aq=1:1.00\n",
      "Output #0, mp4, to '/home/ubuntu/drives/mkt/2 - Content/2 - Graphics/Animations/2026-02-24 Maheus AR Buildings practices comparison/animation_uxz_10h/videos/watermarked_size1920_speed1.0.mp4':\n",
      "  Metadata:\n",
      "    encoder         : Lavf60.16.100\n",
      "  Stream #0:0: Video: h264 (avc1 / 0x31637661), yuv420p(tv, progressive), 1920x1010, q=2-31, 13 fps, 13312 tbn\n",
      "    Metadata:\n",
      "      encoder         : Lavc60.31.102 libx264\n",
      "    Side data:\n",
      "      cpb: bitrate max/min/avg: 0/0/0 buffer size: 0 vbv_delay: N/A\n",
      "[out#0/mp4 @ 0x60bdd2c8d840] video:1568kB audio:0kB subtitle:0kB other streams:0kB global headers:0kB muxing overhead: 0.160026%\n",
      "frame=  141 fps= 31 q=-1.0 Lsize=    1570kB time=00:00:10.61 bitrate=1211.8kbits/s speed= 2.3x    \n",
      "[libx264 @ 0x60bdd2cccac0] frame I:1     Avg QP:18.16  size: 28604\n",
      "[libx264 @ 0x60bdd2cccac0] frame P:35    Avg QP:20.18  size: 17696\n",
      "[libx264 @ 0x60bdd2cccac0] frame B:105   Avg QP:20.64  size:  9111\n",
      "[libx264 @ 0x60bdd2cccac0] consecutive B-frames:  0.7%  0.0%  0.0% 99.3%\n",
      "[libx264 @ 0x60bdd2cccac0] mb I  I16..4: 22.4% 74.4%  3.2%\n",
      "[libx264 @ 0x60bdd2cccac0] mb P  I16..4: 10.5% 24.6%  0.2%  P16..4: 22.4%  4.7%  1.6%  0.0%  0.0%    skip:36.1%\n",
      "[libx264 @ 0x60bdd2cccac0] mb B  I16..4:  1.9%  2.0%  0.0%  B16..8: 30.3%  4.6%  0.5%  direct: 3.6%  skip:57.1%  L0:46.9% L1:49.1% BI: 3.9%\n",
      "[libx264 @ 0x60bdd2cccac0] 8x8 transform intra:65.7% inter:92.7%\n",
      "[libx264 @ 0x60bdd2cccac0] direct mvs  spatial:90.5% temporal:9.5%\n",
      "[libx264 @ 0x60bdd2cccac0] coded y,uvDC,uvAC intra: 11.6% 33.1% 8.2% inter: 5.5% 9.5% 0.7%\n",
      "[libx264 @ 0x60bdd2cccac0] i16 v,h,dc,p: 21% 50%  4% 25%\n",
      "[libx264 @ 0x60bdd2cccac0] i8 v,h,dc,ddl,ddr,vr,hd,vl,hu: 16% 22% 42%  3%  4%  3%  4%  2%  3%\n",
      "[libx264 @ 0x60bdd2cccac0] i4 v,h,dc,ddl,ddr,vr,hd,vl,hu: 25% 29% 14%  5%  6%  5%  6%  4%  7%\n",
      "[libx264 @ 0x60bdd2cccac0] i8c dc,h,v,p: 43% 35% 11% 11%\n",
      "[libx264 @ 0x60bdd2cccac0] Weighted P-Frames: Y:0.0% UV:0.0%\n",
      "[libx264 @ 0x60bdd2cccac0] ref P L0: 57.5%  4.8% 18.5% 10.7%  8.5%\n",
      "[libx264 @ 0x60bdd2cccac0] ref B L0: 85.0%  9.7%  3.7%  1.5%\n",
      "[libx264 @ 0x60bdd2cccac0] ref B L1: 97.0%  3.0%\n",
      "[libx264 @ 0x60bdd2cccac0] kb/s:1183.59\n",
      "ffmpeg version 6.1.1-3ubuntu5 Copyright (c) 2000-2023 the FFmpeg developers\n",
      "  built with gcc 13 (Ubuntu 13.2.0-23ubuntu3)\n",
      "  configuration: --prefix=/usr --extra-version=3ubuntu5 --toolchain=hardened --libdir=/usr/lib/x86_64-linux-gnu --incdir=/usr/include/x86_64-linux-gnu --arch=amd64 --enable-gpl --disable-stripping --disable-omx --enable-gnutls --enable-libaom --enable-libass --enable-libbs2b --enable-libcaca --enable-libcdio --enable-libcodec2 --enable-libdav1d --enable-libflite --enable-libfontconfig --enable-libfreetype --enable-libfribidi --enable-libglslang --enable-libgme --enable-libgsm --enable-libharfbuzz --enable-libmp3lame --enable-libmysofa --enable-libopenjpeg --enable-libopenmpt --enable-libopus --enable-librubberband --enable-libshine --enable-libsnappy --enable-libsoxr --enable-libspeex --enable-libtheora --enable-libtwolame --enable-libvidstab --enable-libvorbis --enable-libvpx --enable-libwebp --enable-libx265 --enable-libxml2 --enable-libxvid --enable-libzimg --enable-openal --enable-opencl --enable-opengl --disable-sndio --enable-libvpl --disable-libmfx --enable-libdc1394 --enable-libdrm --enable-libiec61883 --enable-chromaprint --enable-frei0r --enable-ladspa --enable-libbluray --enable-libjack --enable-libpulse --enable-librabbitmq --enable-librist --enable-libsrt --enable-libssh --enable-libsvtav1 --enable-libx264 --enable-libzmq --enable-libzvbi --enable-lv2 --enable-sdl2 --enable-libplacebo --enable-librav1e --enable-pocketsphinx --enable-librsvg --enable-libjxl --enable-shared\n",
      "  libavutil      58. 29.100 / 58. 29.100\n",
      "  libavcodec     60. 31.102 / 60. 31.102\n",
      "  libavformat    60. 16.100 / 60. 16.100\n",
      "  libavdevice    60.  3.100 / 60.  3.100\n",
      "  libavfilter     9. 12.100 /  9. 12.100\n",
      "  libswscale      7.  5.100 /  7.  5.100\n",
      "  libswresample   4. 12.100 /  4. 12.100\n",
      "  libpostproc    57.  3.100 / 57.  3.100\n"
     ]
    },
    {
     "name": "stdout",
     "output_type": "stream",
     "text": [
      "command: ffmpeg -framerate 13 -pattern_type glob -i \"/home/ubuntu/drives/mkt/2 - Content/2 - Graphics/Animations/2026-02-24 Maheus AR Buildings practices comparison/animation_uxz_10h/watermarked/*.png\"     -filter_complex \"setpts=1.0*PTS,scale=1080:-2:flags=lanczos\"     -c:v libx264 -preset slow -crf 24 -pix_fmt yuv420p \"/home/ubuntu/drives/mkt/2 - Content/2 - Graphics/Animations/2026-02-24 Maheus AR Buildings practices comparison/animation_uxz_10h/videos/watermarked_size1080_speed1.0.mp4\"\n",
      "/home/ubuntu/Documents/Codigos/AeroSim/cfdmod\n"
     ]
    },
    {
     "name": "stderr",
     "output_type": "stream",
     "text": [
      "Input #0, image2, from '/home/ubuntu/drives/mkt/2 - Content/2 - Graphics/Animations/2026-02-24 Maheus AR Buildings practices comparison/animation_uxz_10h/watermarked/*.png':\n",
      "  Duration: 00:00:10.85, start: 0.000000, bitrate: N/A\n",
      "  Stream #0:0: Video: png, rgb24(pc, gbr/unknown/unknown), 1554x818, 13 fps, 13 tbr, 13 tbn\n",
      "Stream mapping:\n",
      "  Stream #0:0 (png) -> setpts:default\n",
      "  scale:default -> Stream #0:0 (libx264)\n",
      "Press [q] to stop, [?] for help\n",
      "[libx264 @ 0x60e32b819ac0] using cpu capabilities: MMX2 SSE2Fast SSSE3 SSE4.2 AVX FMA3 BMI2 AVX2\n",
      "[libx264 @ 0x60e32b819ac0] profile High, level 3.1, 4:2:0, 8-bit\n",
      "[libx264 @ 0x60e32b819ac0] 264 - core 164 r3108 31e19f9 - H.264/MPEG-4 AVC codec - Copyleft 2003-2023 - http://www.videolan.org/x264.html - options: cabac=1 ref=5 deblock=1:0:0 analyse=0x3:0x113 me=hex subme=8 psy=1 psy_rd=1.00:0.00 mixed_ref=1 me_range=16 chroma_me=1 trellis=2 8x8dct=1 cqm=0 deadzone=21,11 fast_pskip=1 chroma_qp_offset=-2 threads=18 lookahead_threads=3 sliced_threads=0 nr=0 decimate=1 interlaced=0 bluray_compat=0 constrained_intra=0 bframes=3 b_pyramid=2 b_adapt=1 b_bias=0 direct=3 weightb=1 open_gop=0 weightp=2 keyint=250 keyint_min=13 scenecut=40 intra_refresh=0 rc_lookahead=50 rc=crf mbtree=1 crf=24.0 qcomp=0.60 qpmin=0 qpmax=69 qpstep=4 ip_ratio=1.40 aq=1:1.00\n",
      "Output #0, mp4, to '/home/ubuntu/drives/mkt/2 - Content/2 - Graphics/Animations/2026-02-24 Maheus AR Buildings practices comparison/animation_uxz_10h/videos/watermarked_size1080_speed1.0.mp4':\n",
      "  Metadata:\n",
      "    encoder         : Lavf60.16.100\n",
      "  Stream #0:0: Video: h264 (avc1 / 0x31637661), yuv420p(tv, progressive), 1080x568, q=2-31, 13 fps, 13312 tbn\n",
      "    Metadata:\n",
      "      encoder         : Lavc60.31.102 libx264\n",
      "    Side data:\n",
      "      cpb: bitrate max/min/avg: 0/0/0 buffer size: 0 vbv_delay: N/A\n",
      "[out#0/mp4 @ 0x60e32b7da840] video:620kB audio:0kB subtitle:0kB other streams:0kB global headers:0kB muxing overhead: 0.401902%\n",
      "frame=  141 fps= 68 q=-1.0 Lsize=     623kB time=00:00:10.61 bitrate= 480.6kbits/s speed=5.09x    \n",
      "[libx264 @ 0x60e32b819ac0] frame I:1     Avg QP:19.53  size: 13718\n",
      "[libx264 @ 0x60e32b819ac0] frame P:35    Avg QP:21.56  size:  7823\n",
      "[libx264 @ 0x60e32b819ac0] frame B:105   Avg QP:22.42  size:  3305\n",
      "[libx264 @ 0x60e32b819ac0] consecutive B-frames:  0.7%  0.0%  0.0% 99.3%\n",
      "[libx264 @ 0x60e32b819ac0] mb I  I16..4: 22.5% 71.2%  6.3%\n",
      "[libx264 @ 0x60e32b819ac0] mb P  I16..4:  9.5% 20.2%  0.3%  P16..4: 27.3%  7.9%  3.4%  0.0%  0.0%    skip:31.4%\n",
      "[libx264 @ 0x60e32b819ac0] mb B  I16..4:  1.0%  1.5%  0.0%  B16..8: 31.5%  5.5%  0.9%  direct: 2.4%  skip:57.2%  L0:43.4% L1:49.3% BI: 7.3%\n",
      "[libx264 @ 0x60e32b819ac0] 8x8 transform intra:66.2% inter:94.4%\n",
      "[libx264 @ 0x60e32b819ac0] direct mvs  spatial:90.5% temporal:9.5%\n",
      "[libx264 @ 0x60e32b819ac0] coded y,uvDC,uvAC intra: 18.2% 41.7% 15.9% inter: 6.7% 10.0% 1.3%\n",
      "[libx264 @ 0x60e32b819ac0] i16 v,h,dc,p: 20% 47%  6% 27%\n",
      "[libx264 @ 0x60e32b819ac0] i8 v,h,dc,ddl,ddr,vr,hd,vl,hu: 10% 20% 36%  4%  7%  5%  8%  4%  6%\n",
      "[libx264 @ 0x60e32b819ac0] i4 v,h,dc,ddl,ddr,vr,hd,vl,hu: 18% 31%  8%  5%  8%  6%  9%  5% 10%\n",
      "[libx264 @ 0x60e32b819ac0] i8c dc,h,v,p: 38% 36% 14% 12%\n",
      "[libx264 @ 0x60e32b819ac0] Weighted P-Frames: Y:0.0% UV:0.0%\n",
      "[libx264 @ 0x60e32b819ac0] ref P L0: 59.3%  6.1% 17.3%  9.4%  7.9%\n",
      "[libx264 @ 0x60e32b819ac0] ref B L0: 88.0%  7.8%  2.8%  1.3%\n",
      "[libx264 @ 0x60e32b819ac0] ref B L1: 97.6%  2.4%\n",
      "[libx264 @ 0x60e32b819ac0] kb/s:468.03\n"
     ]
    }
   ],
   "source": [
    "if turn_into_video:\n",
    "    for image_size in gif_size_list:\n",
    "        for speed_multiplier in speed_multiplier_list:\n",
    "            video_out = generate_mp4_from_images(\n",
    "                images_dir=images_with_watermark_path_dir, \n",
    "                video_dir=videos_path,\n",
    "                image_size=image_size,\n",
    "                speed_multiplier=speed_multiplier,\n",
    "            )\n"
   ]
  },
  {
   "cell_type": "code",
   "execution_count": 58,
   "metadata": {},
   "outputs": [
    {
     "name": "stdout",
     "output_type": "stream",
     "text": [
      "command: ffmpeg -y -i \"/home/ubuntu/drives/mkt/2 - Content/2 - Graphics/Animations/2026-02-24 Maheus AR Buildings practices comparison/animation_uxz_10h/videos/watermarked_size1920_speed1.0.mp4\" -filter_complex \"[0:v]minterpolate=mi_mode=mci:mc_mode=none:me_mode=bidir:fps=24[v];[v]setpts=1*PTS\" \"/home/ubuntu/drives/mkt/2 - Content/2 - Graphics/Animations/2026-02-24 Maheus AR Buildings practices comparison/animation_uxz_10h/videos/watermarked_size1920_speed1.0_interpolated.mp4\"\n",
      "/home/ubuntu/Documents/Codigos/AeroSim/cfdmod\n"
     ]
    },
    {
     "name": "stderr",
     "output_type": "stream",
     "text": [
      "ffmpeg version 6.1.1-3ubuntu5 Copyright (c) 2000-2023 the FFmpeg developers\n",
      "  built with gcc 13 (Ubuntu 13.2.0-23ubuntu3)\n",
      "  configuration: --prefix=/usr --extra-version=3ubuntu5 --toolchain=hardened --libdir=/usr/lib/x86_64-linux-gnu --incdir=/usr/include/x86_64-linux-gnu --arch=amd64 --enable-gpl --disable-stripping --disable-omx --enable-gnutls --enable-libaom --enable-libass --enable-libbs2b --enable-libcaca --enable-libcdio --enable-libcodec2 --enable-libdav1d --enable-libflite --enable-libfontconfig --enable-libfreetype --enable-libfribidi --enable-libglslang --enable-libgme --enable-libgsm --enable-libharfbuzz --enable-libmp3lame --enable-libmysofa --enable-libopenjpeg --enable-libopenmpt --enable-libopus --enable-librubberband --enable-libshine --enable-libsnappy --enable-libsoxr --enable-libspeex --enable-libtheora --enable-libtwolame --enable-libvidstab --enable-libvorbis --enable-libvpx --enable-libwebp --enable-libx265 --enable-libxml2 --enable-libxvid --enable-libzimg --enable-openal --enable-opencl --enable-opengl --disable-sndio --enable-libvpl --disable-libmfx --enable-libdc1394 --enable-libdrm --enable-libiec61883 --enable-chromaprint --enable-frei0r --enable-ladspa --enable-libbluray --enable-libjack --enable-libpulse --enable-librabbitmq --enable-librist --enable-libsrt --enable-libssh --enable-libsvtav1 --enable-libx264 --enable-libzmq --enable-libzvbi --enable-lv2 --enable-sdl2 --enable-libplacebo --enable-librav1e --enable-pocketsphinx --enable-librsvg --enable-libjxl --enable-shared\n",
      "  libavutil      58. 29.100 / 58. 29.100\n",
      "  libavcodec     60. 31.102 / 60. 31.102\n",
      "  libavformat    60. 16.100 / 60. 16.100\n",
      "  libavdevice    60.  3.100 / 60.  3.100\n",
      "  libavfilter     9. 12.100 /  9. 12.100\n",
      "  libswscale      7.  5.100 /  7.  5.100\n",
      "  libswresample   4. 12.100 /  4. 12.100\n",
      "  libpostproc    57.  3.100 / 57.  3.100\n",
      "Input #0, mov,mp4,m4a,3gp,3g2,mj2, from '/home/ubuntu/drives/mkt/2 - Content/2 - Graphics/Animations/2026-02-24 Maheus AR Buildings practices comparison/animation_uxz_10h/videos/watermarked_size1920_speed1.0.mp4':\n",
      "  Metadata:\n",
      "    major_brand     : isom\n",
      "    minor_version   : 512\n",
      "    compatible_brands: isomiso2avc1mp41\n",
      "    encoder         : Lavf60.16.100\n",
      "  Duration: 00:00:10.85, start: 0.000000, bitrate: 1185 kb/s\n",
      "  Stream #0:0[0x1](und): Video: h264 (High) (avc1 / 0x31637661), yuv420p(progressive), 1920x1010, 1184 kb/s, 13 fps, 13 tbr, 13312 tbn (default)\n",
      "    Metadata:\n",
      "      handler_name    : VideoHandler\n",
      "      vendor_id       : [0][0][0][0]\n",
      "      encoder         : Lavc60.31.102 libx264\n",
      "Stream mapping:\n",
      "  Stream #0:0 (h264) -> minterpolate:default\n",
      "  setpts:default -> Stream #0:0 (libx264)\n",
      "Press [q] to stop, [?] for help\n",
      "[libx264 @ 0x578bffbd2780] using cpu capabilities: MMX2 SSE2Fast SSSE3 SSE4.2 AVX FMA3 BMI2 AVX2\n",
      "[libx264 @ 0x578bffbd2780] profile High, level 4.0, 4:2:0, 8-bit\n",
      "[libx264 @ 0x578bffbd2780] 264 - core 164 r3108 31e19f9 - H.264/MPEG-4 AVC codec - Copyleft 2003-2023 - http://www.videolan.org/x264.html - options: cabac=1 ref=3 deblock=1:0:0 analyse=0x3:0x113 me=hex subme=7 psy=1 psy_rd=1.00:0.00 mixed_ref=1 me_range=16 chroma_me=1 trellis=1 8x8dct=1 cqm=0 deadzone=21,11 fast_pskip=1 chroma_qp_offset=-2 threads=18 lookahead_threads=3 sliced_threads=0 nr=0 decimate=1 interlaced=0 bluray_compat=0 constrained_intra=0 bframes=3 b_pyramid=2 b_adapt=1 b_bias=0 direct=1 weightb=1 open_gop=0 weightp=2 keyint=250 keyint_min=24 scenecut=40 intra_refresh=0 rc_lookahead=40 rc=crf mbtree=1 crf=23.0 qcomp=0.60 qpmin=0 qpmax=69 qpstep=4 ip_ratio=1.40 aq=1:1.00\n",
      "Output #0, mp4, to '/home/ubuntu/drives/mkt/2 - Content/2 - Graphics/Animations/2026-02-24 Maheus AR Buildings practices comparison/animation_uxz_10h/videos/watermarked_size1920_speed1.0_interpolated.mp4':\n",
      "  Metadata:\n",
      "    major_brand     : isom\n",
      "    minor_version   : 512\n",
      "    compatible_brands: isomiso2avc1mp41\n",
      "    encoder         : Lavf60.16.100\n",
      "  Stream #0:0: Video: h264 (avc1 / 0x31637661), yuv420p(progressive), 1920x1010, q=2-31, 24 fps, 12288 tbn\n",
      "    Metadata:\n",
      "      encoder         : Lavc60.31.102 libx264\n",
      "    Side data:\n",
      "      cpb: bitrate max/min/avg: 0/0/0 buffer size: 0 vbv_delay: N/A\n",
      "[out#0/mp4 @ 0x578bffbd1640] video:2189kB audio:0kB subtitle:0kB other streams:0kB global headers:0kB muxing overhead: 0.176733%\n",
      "frame=  257 fps=1.2 q=-1.0 Lsize=    2193kB time=00:00:10.58 bitrate=1697.2kbits/s speed=0.0489x    \n",
      "[libx264 @ 0x578bffbd2780] frame I:2     Avg QP:17.43  size: 29138\n",
      "[libx264 @ 0x578bffbd2780] frame P:65    Avg QP:20.10  size: 15097\n",
      "[libx264 @ 0x578bffbd2780] frame B:190   Avg QP:21.28  size:  6321\n",
      "[libx264 @ 0x578bffbd2780] consecutive B-frames:  1.2%  0.8%  0.0% 98.1%\n",
      "[libx264 @ 0x578bffbd2780] mb I  I16..4: 27.9% 68.8%  3.3%\n",
      "[libx264 @ 0x578bffbd2780] mb P  I16..4:  9.5% 24.3%  0.1%  P16..4: 22.7%  4.0%  1.0%  0.0%  0.0%    skip:38.4%\n",
      "[libx264 @ 0x578bffbd2780] mb B  I16..4:  1.2%  1.2%  0.0%  B16..8: 24.4%  1.9%  0.1%  direct: 6.4%  skip:64.6%  L0:44.6% L1:51.4% BI: 3.9%\n",
      "[libx264 @ 0x578bffbd2780] 8x8 transform intra:67.8% inter:95.0%\n",
      "[libx264 @ 0x578bffbd2780] coded y,uvDC,uvAC intra: 10.9% 37.9% 8.2% inter: 3.8% 13.4% 0.3%\n",
      "[libx264 @ 0x578bffbd2780] i16 v,h,dc,p: 26% 39%  6% 30%\n",
      "[libx264 @ 0x578bffbd2780] i8 v,h,dc,ddl,ddr,vr,hd,vl,hu: 23% 21% 42%  2%  3%  2%  3%  2%  2%\n",
      "[libx264 @ 0x578bffbd2780] i4 v,h,dc,ddl,ddr,vr,hd,vl,hu: 31% 32% 14%  3%  5%  4%  5%  3%  3%\n",
      "[libx264 @ 0x578bffbd2780] i8c dc,h,v,p: 52% 26% 14%  7%\n",
      "[libx264 @ 0x578bffbd2780] Weighted P-Frames: Y:0.0% UV:0.0%\n",
      "[libx264 @ 0x578bffbd2780] ref P L0: 66.5%  5.5% 19.0%  9.0%\n",
      "[libx264 @ 0x578bffbd2780] ref B L0: 90.6%  7.6%  1.8%\n",
      "[libx264 @ 0x578bffbd2780] ref B L1: 97.3%  2.7%\n",
      "[libx264 @ 0x578bffbd2780] kb/s:1673.87\n"
     ]
    },
    {
     "name": "stdout",
     "output_type": "stream",
     "text": [
      "command: ffmpeg -y -i \"/home/ubuntu/drives/mkt/2 - Content/2 - Graphics/Animations/2026-02-24 Maheus AR Buildings practices comparison/animation_uxz_10h/videos/watermarked_size1080_speed1.0.mp4\" -filter_complex \"[0:v]minterpolate=mi_mode=mci:mc_mode=none:me_mode=bidir:fps=24[v];[v]setpts=1*PTS\" \"/home/ubuntu/drives/mkt/2 - Content/2 - Graphics/Animations/2026-02-24 Maheus AR Buildings practices comparison/animation_uxz_10h/videos/watermarked_size1080_speed1.0_interpolated.mp4\"\n",
      "/home/ubuntu/Documents/Codigos/AeroSim/cfdmod\n"
     ]
    },
    {
     "name": "stderr",
     "output_type": "stream",
     "text": [
      "ffmpeg version 6.1.1-3ubuntu5 Copyright (c) 2000-2023 the FFmpeg developers\n",
      "  built with gcc 13 (Ubuntu 13.2.0-23ubuntu3)\n",
      "  configuration: --prefix=/usr --extra-version=3ubuntu5 --toolchain=hardened --libdir=/usr/lib/x86_64-linux-gnu --incdir=/usr/include/x86_64-linux-gnu --arch=amd64 --enable-gpl --disable-stripping --disable-omx --enable-gnutls --enable-libaom --enable-libass --enable-libbs2b --enable-libcaca --enable-libcdio --enable-libcodec2 --enable-libdav1d --enable-libflite --enable-libfontconfig --enable-libfreetype --enable-libfribidi --enable-libglslang --enable-libgme --enable-libgsm --enable-libharfbuzz --enable-libmp3lame --enable-libmysofa --enable-libopenjpeg --enable-libopenmpt --enable-libopus --enable-librubberband --enable-libshine --enable-libsnappy --enable-libsoxr --enable-libspeex --enable-libtheora --enable-libtwolame --enable-libvidstab --enable-libvorbis --enable-libvpx --enable-libwebp --enable-libx265 --enable-libxml2 --enable-libxvid --enable-libzimg --enable-openal --enable-opencl --enable-opengl --disable-sndio --enable-libvpl --disable-libmfx --enable-libdc1394 --enable-libdrm --enable-libiec61883 --enable-chromaprint --enable-frei0r --enable-ladspa --enable-libbluray --enable-libjack --enable-libpulse --enable-librabbitmq --enable-librist --enable-libsrt --enable-libssh --enable-libsvtav1 --enable-libx264 --enable-libzmq --enable-libzvbi --enable-lv2 --enable-sdl2 --enable-libplacebo --enable-librav1e --enable-pocketsphinx --enable-librsvg --enable-libjxl --enable-shared\n",
      "  libavutil      58. 29.100 / 58. 29.100\n",
      "  libavcodec     60. 31.102 / 60. 31.102\n",
      "  libavformat    60. 16.100 / 60. 16.100\n",
      "  libavdevice    60.  3.100 / 60.  3.100\n",
      "  libavfilter     9. 12.100 /  9. 12.100\n",
      "  libswscale      7.  5.100 /  7.  5.100\n",
      "  libswresample   4. 12.100 /  4. 12.100\n",
      "  libpostproc    57.  3.100 / 57.  3.100\n",
      "Input #0, mov,mp4,m4a,3gp,3g2,mj2, from '/home/ubuntu/drives/mkt/2 - Content/2 - Graphics/Animations/2026-02-24 Maheus AR Buildings practices comparison/animation_uxz_10h/videos/watermarked_size1080_speed1.0.mp4':\n",
      "  Metadata:\n",
      "    major_brand     : isom\n",
      "    minor_version   : 512\n",
      "    compatible_brands: isomiso2avc1mp41\n",
      "    encoder         : Lavf60.16.100\n",
      "  Duration: 00:00:10.85, start: 0.000000, bitrate: 470 kb/s\n",
      "  Stream #0:0[0x1](und): Video: h264 (High) (avc1 / 0x31637661), yuv420p(progressive), 1080x568, 468 kb/s, 13 fps, 13 tbr, 13312 tbn (default)\n",
      "    Metadata:\n",
      "      handler_name    : VideoHandler\n",
      "      vendor_id       : [0][0][0][0]\n",
      "      encoder         : Lavc60.31.102 libx264\n",
      "Stream mapping:\n",
      "  Stream #0:0 (h264) -> minterpolate:default\n",
      "  setpts:default -> Stream #0:0 (libx264)\n",
      "Press [q] to stop, [?] for help\n",
      "[libx264 @ 0x561fd9ea2ec0] using cpu capabilities: MMX2 SSE2Fast SSSE3 SSE4.2 AVX FMA3 BMI2 AVX2\n",
      "[libx264 @ 0x561fd9ea2ec0] profile High, level 3.1, 4:2:0, 8-bit\n",
      "[libx264 @ 0x561fd9ea2ec0] 264 - core 164 r3108 31e19f9 - H.264/MPEG-4 AVC codec - Copyleft 2003-2023 - http://www.videolan.org/x264.html - options: cabac=1 ref=3 deblock=1:0:0 analyse=0x3:0x113 me=hex subme=7 psy=1 psy_rd=1.00:0.00 mixed_ref=1 me_range=16 chroma_me=1 trellis=1 8x8dct=1 cqm=0 deadzone=21,11 fast_pskip=1 chroma_qp_offset=-2 threads=18 lookahead_threads=3 sliced_threads=0 nr=0 decimate=1 interlaced=0 bluray_compat=0 constrained_intra=0 bframes=3 b_pyramid=2 b_adapt=1 b_bias=0 direct=1 weightb=1 open_gop=0 weightp=2 keyint=250 keyint_min=24 scenecut=40 intra_refresh=0 rc_lookahead=40 rc=crf mbtree=1 crf=23.0 qcomp=0.60 qpmin=0 qpmax=69 qpstep=4 ip_ratio=1.40 aq=1:1.00\n",
      "Output #0, mp4, to '/home/ubuntu/drives/mkt/2 - Content/2 - Graphics/Animations/2026-02-24 Maheus AR Buildings practices comparison/animation_uxz_10h/videos/watermarked_size1080_speed1.0_interpolated.mp4':\n",
      "  Metadata:\n",
      "    major_brand     : isom\n",
      "    minor_version   : 512\n",
      "    compatible_brands: isomiso2avc1mp41\n",
      "    encoder         : Lavf60.16.100\n",
      "  Stream #0:0: Video: h264 (avc1 / 0x31637661), yuv420p(progressive), 1080x568, q=2-31, 24 fps, 12288 tbn\n",
      "    Metadata:\n",
      "      encoder         : Lavc60.31.102 libx264\n",
      "    Side data:\n",
      "      cpb: bitrate max/min/avg: 0/0/0 buffer size: 0 vbv_delay: N/A\n",
      "[out#0/mp4 @ 0x561fd9ea1d80] video:825kB audio:0kB subtitle:0kB other streams:0kB global headers:0kB muxing overhead: 0.466622%\n",
      "frame=  257 fps=3.7 q=-1.0 Lsize=     829kB time=00:00:10.58 bitrate= 641.4kbits/s speed=0.154x    \n",
      "[libx264 @ 0x561fd9ea2ec0] frame I:2     Avg QP:18.49  size: 13950\n",
      "[libx264 @ 0x561fd9ea2ec0] frame P:65    Avg QP:21.77  size:  6597\n",
      "[libx264 @ 0x561fd9ea2ec0] frame B:190   Avg QP:22.58  size:  2038\n",
      "[libx264 @ 0x561fd9ea2ec0] consecutive B-frames:  1.2%  0.8%  0.0% 98.1%\n",
      "[libx264 @ 0x561fd9ea2ec0] mb I  I16..4: 20.2% 73.2%  6.6%\n",
      "[libx264 @ 0x561fd9ea2ec0] mb P  I16..4:  8.2% 17.8%  0.3%  P16..4: 29.9%  6.6%  2.1%  0.0%  0.0%    skip:35.0%\n",
      "[libx264 @ 0x561fd9ea2ec0] mb B  I16..4:  0.6%  0.7%  0.0%  B16..8: 26.9%  2.2%  0.3%  direct: 3.2%  skip:66.1%  L0:42.4% L1:51.2% BI: 6.5%\n",
      "[libx264 @ 0x561fd9ea2ec0] 8x8 transform intra:66.7% inter:93.7%\n",
      "[libx264 @ 0x561fd9ea2ec0] coded y,uvDC,uvAC intra: 18.2% 47.0% 15.1% inter: 4.6% 12.1% 0.5%\n",
      "[libx264 @ 0x561fd9ea2ec0] i16 v,h,dc,p: 22% 41%  8% 28%\n",
      "[libx264 @ 0x561fd9ea2ec0] i8 v,h,dc,ddl,ddr,vr,hd,vl,hu: 16% 23% 39%  3%  5%  4%  6%  3%  3%\n",
      "[libx264 @ 0x561fd9ea2ec0] i4 v,h,dc,ddl,ddr,vr,hd,vl,hu: 24% 36% 11%  4%  6%  5%  7%  3%  4%\n",
      "[libx264 @ 0x561fd9ea2ec0] i8c dc,h,v,p: 48% 28% 16%  8%\n",
      "[libx264 @ 0x561fd9ea2ec0] Weighted P-Frames: Y:0.0% UV:0.0%\n",
      "[libx264 @ 0x561fd9ea2ec0] ref P L0: 65.9%  7.4% 18.1%  8.6%\n",
      "[libx264 @ 0x561fd9ea2ec0] ref B L0: 91.7%  6.8%  1.5%\n",
      "[libx264 @ 0x561fd9ea2ec0] ref B L1: 97.7%  2.3%\n",
      "[libx264 @ 0x561fd9ea2ec0] kb/s:630.45\n"
     ]
    }
   ],
   "source": [
    "if generate_intermediate_frames:\n",
    "    for image_size in gif_size_list:\n",
    "        for speed_multiplier in speed_multiplier_list:\n",
    "            video_out = videos_path/f\"{images_with_watermark_path_dir.stem}_size{image_size}_speed{speed_multiplier}.mp4\"\n",
    "            generate_frames_for_video(video_file=video_out)\n"
   ]
  }
 ],
 "metadata": {
  "kernelspec": {
   "display_name": "aerosim-cfdmod",
   "language": "python",
   "name": "python3"
  },
  "language_info": {
   "codemirror_mode": {
    "name": "ipython",
    "version": 3
   },
   "file_extension": ".py",
   "mimetype": "text/x-python",
   "name": "python",
   "nbconvert_exporter": "python",
   "pygments_lexer": "ipython3",
   "version": "3.12.3"
  }
 },
 "nbformat": 4,
 "nbformat_minor": 2
}
